<svg xmlns="http://www.w3.org/2000/svg" width="1000" height="256" viewBox="0 0 1000 256">
  <g id="logotype" fill="none" fill-rule="evenodd">
    <g id="mic" fill="#5865E7" transform="rotate(-16 -3.48 302.48)">
      <path id="Oval" fill-rule="nonzero" d="M171,294.082569 L171,256.211009 C218.060741,256.211009 256.211009,218.060741 256.211009,171 C256.211009,123.939259 218.060741,85.7889908 171,85.7889908 C123.939259,85.7889908 85.7889908,123.939259 85.7889908,171 C85.7889908,192.875692 94.040782,213.409945 108.655369,229.087278 L80.9536672,254.911119 C59.8663395,232.29036 47.9174312,202.555978 47.9174312,171 C47.9174312,103.023374 103.023374,47.9174312 171,47.9174312 C238.976626,47.9174312 294.082569,103.023374 294.082569,171 C294.082569,238.976626 238.976626,294.082569 171,294.082569 Z" transform="rotate(-146 171 171)"/>
      <polygon id="Line" fill-rule="nonzero" points="294.161 165.634 286.933 202.809 149.827 176.15 157.056 138.975" transform="rotate(-11 221.994 170.892)"/>
      <circle id="inner" cx="171" cy="171" r="42.606" transform="rotate(-26 171 171)"/>
    </g>
    <text id="GitSpeak" fill="#4A4A4A" font-family="SFProDisplay-Bold, SF Pro Display" font-size="170" font-weight="bold">
      <tspan x="271" y="194">GitSpeak</tspan>
    </text>
  </g>
</svg>
